2.2Hz3min_grf.mot
version=1
nRows=30
nColumns 19
inDegrees=yes
endheader
time	1_ground_force_vx	1_ground_force_vy	1_ground_force_vz	1_ground_force_px	1_ground_force_py	1_ground_force_pz	1_ground_torque_x	1_ground_torque_y	1_ground_torque_z	2_ground_force_vx	2_ground_force_vy	2_ground_force_vz	2_ground_force_px	2_ground_force_py	2_ground_force_pz	2_ground_torque_x	2_ground_torque_y	2_ground_torque_z
            3.751500	            0.045618	           -1.261064	           -0.188948	           -0.233013	            0.005581	           -0.255695	            0.120759	           -0.017562	           -0.205155	            0.095858	           -0.553446	            0.373414	           -0.232311	            0.006130	           -0.833667	           -0.168624	           -0.132679	           -0.075801
            3.752000	            0.045405	           -0.720071	           -0.232485	           -0.233013	            0.005581	           -0.255695	            0.066249	           -0.082601	           -0.130125	            0.008304	           -2.212458	            0.742965	           -0.232311	            0.006130	           -0.833667	           -0.149914	           -0.122823	           -0.170026
            3.752500	           -0.046427	           -0.539626	           -0.277341	           -0.233013	            0.005581	           -0.255695	            0.011714	           -0.073331	           -0.152664	            0.144202	           -0.922912	            0.747505	           -0.232311	            0.006130	           -0.833667	           -0.224996	           -0.132748	           -0.113478
            3.753000	           -0.000698	           -0.539421	           -0.323310	           -0.233013	            0.005581	           -0.255695	            0.107758	           -0.018236	           -0.056721	            0.051770	           -1.291045	            0.605446	           -0.232311	            0.006130	           -0.833667	           -0.206339	           -0.094937	           -0.094500
            3.753500	            0.044998	           -0.358950	           -0.368507	           -0.233013	            0.005581	           -0.255695	            0.109554	           -0.008892	           -0.073535	            0.051187	           -1.107566	            0.793815	           -0.232311	            0.006130	           -0.833667	           -0.131291	           -0.075559	           -0.151016
            3.754000	           -0.091815	           -0.540422	           -0.093803	           -0.233013	            0.005581	           -0.255695	           -0.033484	            0.009514	           -0.078959	            0.146134	           -1.474855	            0.604749	           -0.232311	            0.006130	           -0.833667	           -0.112301	           -0.132207	           -0.151226
            3.754500	            0.137187	            0.000616	           -0.137909	           -0.233013	            0.005581	           -0.255695	            0.042956	            0.010116	           -0.182180	            0.048323	           -0.369299	            0.327163	           -0.232311	            0.006130	           -0.833667	           -0.149889	           -0.123024	           -0.113476
            3.755000	           -0.092743	            0.182017	           -0.411703	           -0.233013	            0.005581	           -0.255695	            0.092519	           -0.027689	           -0.023062	            0.097249	           -0.922244	            0.512884	           -0.232311	            0.006130	           -0.833667	           -0.187520	           -0.104322	           -0.094542
            3.755500	            0.182299	           -0.358530	           -0.460560	           -0.233013	            0.005581	           -0.255695	            0.057131	           -0.091952	           -0.086695	            0.239251	           -1.291038	            0.793079	           -0.232311	            0.006130	           -0.833667	           -0.112310	           -0.122956	           -0.094642
            3.756000	            0.136765	           -0.178863	           -0.322106	           -0.233013	            0.005581	           -0.255695	            0.070090	           -0.018341	           -0.013180	           -0.091418	           -0.555126	            0.655062	           -0.232311	            0.006130	           -0.833667	           -0.074687	           -0.141591	           -0.132425
            3.756500	            0.182755	           -0.359316	           -0.277137	           -0.233013	            0.005581	           -0.255695	            0.086793	           -0.008669	           -0.105210	            0.287328	           -1.658328	            0.557104	           -0.232311	            0.006130	           -0.833667	           -0.206466	           -0.066377	           -0.150950
            3.757000	           -0.000863	            0.361908	           -0.319445	           -0.233013	            0.005581	           -0.255695	            0.013370	           -0.046065	           -0.037840	            0.194937	           -2.026796	            0.508902	           -0.232311	            0.006130	           -0.833667	           -0.112404	           -0.094665	           -0.075690
            3.757500	           -0.046020	           -0.900747	           -0.141319	           -0.233013	            0.005581	           -0.255695	            0.100019	            0.009720	           -0.114918	            0.099264	           -1.474857	            0.557841	           -0.232311	            0.006130	           -0.833667	           -0.131011	           -0.142064	           -0.057001
            3.758000	            0.045082	           -1.440347	           -0.419001	           -0.233013	            0.005581	           -0.255695	            0.018396	           -0.036722	           -0.054591	            0.142729	           -0.553444	            0.420322	           -0.232311	            0.006130	           -0.833667	           -0.056064	           -0.094327	           -0.113415
            3.758500	           -0.092076	           -0.359763	           -0.184742	           -0.233013	            0.005581	           -0.255695	            0.064336	           -0.129363	           -0.023409	            0.144764	           -1.106224	            0.512207	           -0.232311	            0.006130	           -0.833667	           -0.168691	           -0.122958	           -0.151168
            3.759000	           -0.229736	            0.361273	           -0.181309	           -0.233013	            0.005581	           -0.255695	            0.157567	           -0.064463	           -0.085646	            0.144140	           -0.922410	            0.606720	           -0.232311	            0.006130	           -0.833667	           -0.131078	           -0.132342	           -0.132368
            3.759500	           -0.046248	           -0.900354	           -0.233031	           -0.233013	            0.005581	           -0.255695	            0.085212	           -0.036584	           -0.096282	            0.004940	           -1.291381	            0.652394	           -0.232311	            0.006130	           -0.833667	           -0.131087	           -0.123091	           -0.075783
            3.760000	           -0.138197	            0.541753	           -0.226619	           -0.233013	            0.005581	           -0.255695	            0.065554	           -0.055197	           -0.081475	           -0.137644	           -0.739109	            0.560569	           -0.232311	            0.006130	           -0.833667	           -0.168793	           -0.094600	           -0.151067
            3.760500	           -0.184445	           -0.358601	           -0.459650	           -0.233013	            0.005581	           -0.255695	            0.000950	           -0.018507	           -0.026686	            0.235784	           -0.369125	            0.467867	           -0.232311	            0.006130	           -0.833667	           -0.168784	           -0.103851	           -0.207651
            3.761000	            0.045909	           -0.360522	           -0.001660	           -0.233013	            0.005581	           -0.255695	            0.075093	           -0.008805	           -0.092247	            0.047220	           -0.002843	            0.844686	           -0.232311	            0.006130	           -0.833667	           -0.131247	           -0.094262	           -0.207634
            3.761500	            0.045160	            0.001188	           -0.275249	           -0.233013	            0.005581	           -0.255695	            0.086506	           -0.045625	           -0.130042	            0.140858	           -0.002003	            0.703862	           -0.232311	            0.006130	           -0.833667	           -0.149976	           -0.085617	           -0.000240
            3.762000	           -0.046364	            0.361309	           -0.181764	           -0.233013	            0.005581	           -0.255695	            0.007495	           -0.018352	           -0.039661	            0.191593	           -1.105887	            0.465259	           -0.232311	            0.006130	           -0.833667	           -0.149691	           -0.188857	           -0.207963
            3.762500	            0.229200	           -0.540556	           -0.048744	           -0.233013	            0.005581	           -0.255695	            0.002012	           -0.064036	           -0.122073	            0.146052	           -1.474185	            0.417037	           -0.232311	            0.006130	           -0.833667	           -0.149795	           -0.151315	           -0.132427
            3.763000	            0.090694	           -0.178479	           -0.413704	           -0.233013	            0.005581	           -0.255695	            0.017450	           -0.036459	           -0.109072	            0.146757	           -1.658669	            0.510236	           -0.232311	            0.006130	           -0.833667	           -0.112403	           -0.103849	           -0.151125
            3.763500	           -0.137934	           -0.900372	           -0.232803	           -0.233013	            0.005581	           -0.255695	            0.066422	            0.009588	           -0.099946	           -0.134301	           -1.660018	            0.604212	           -0.232311	            0.006130	           -0.833667	           -0.131122	           -0.104454	           -0.000315
            3.764000	           -0.046981	            0.001957	           -0.458445	           -0.233013	            0.005581	           -0.255695	            0.075536	            0.009785	           -0.133687	           -0.088116	           -1.475701	            0.604849	           -0.232311	            0.006130	           -0.833667	           -0.149940	           -0.113437	           -0.151142
            3.764500	           -0.275121	           -0.900988	           -0.094894	           -0.233013	            0.005581	           -0.255695	           -0.014310	           -0.009376	           -0.011701	            0.005625	           -1.475697	            0.698665	           -0.232311	            0.006130	           -0.833667	           -0.187682	           -0.057126	           -0.075523
            3.765000	            0.136879	           -0.179059	           -0.276250	           -0.233013	            0.005581	           -0.255695	            0.049401	            0.027793	            0.005867	            0.002967	           -0.739104	            0.701293	           -0.232311	            0.006130	           -0.833667	           -0.112269	           -0.123292	           -0.000391
            3.765500	            0.091443	           -0.540189	           -0.140114	           -0.233013	            0.005581	           -0.255695	            0.024630	           -0.045530	           -0.146713	           -0.045980	           -0.185991	            0.468644	           -0.232311	            0.006130	           -0.833667	           -0.149837	           -0.141795	           -0.151244
            3.766000	            0.090889	            0.001394	           -0.321219	           -0.233013	            0.005581	           -0.255695	            0.088793	           -0.046169	            0.003491	            0.054510	           -2.028308	            0.790530	           -0.232311	            0.006130	           -0.833667	           -0.149811	           -0.151181	           -0.170128
